<svg xmlns="http://www.w3.org/2000/svg" viewBox="0 0 478 478"><defs><style>.cls-2{fill:#fff;}.cls-1{fill:#FF7517;}</style></defs><g id="Capa_2" data-name="Capa 2"><g id="Capa_1-2" data-name="Capa 1"><circle class="cls-1" cx="239" cy="239" r="239"/><path class="cls-2" d="M239.19,391c14.8,0,48.32-116.39,48.32-116.39,60.95,2,90.42-35.47,90.42-35.47-18.48,8.49-38.46,0-38.46,0,38.46,0,60.44-32.47,60.44-32.47-17,9.49-47.46,6-47.46,6,47.46-6,57.76-48.7,57.76-48.7-62.14,29.72-126.44,0-126.44,0a44.4,44.4,0,0,0-44.39-44.46h0A44.39,44.39,0,0,0,195,164s-64.31,29.72-126.44,0c0,0,10.29,42.71,57.75,48.7,0,0-30.47,3.5-47.46-6,0,0,22,32.47,60.45,32.47,0,0-20,8.49-38.47,0,0,0,29.48,37.47,90.42,35.47C191.23,274.61,226,391,239.19,391Z"/><path class="cls-1" d="M243.05,163.59a88.75,88.75,0,0,0,13.35-.36,15.29,15.29,0,0,0,6.46-2.37L261.23,163A34.72,34.72,0,0,1,250,172.3a26.72,26.72,0,0,1-4.58,1.84l0-1.43c5.58,1.34,11.6,1.93,17.17.29a41.05,41.05,0,0,1-14.07,8.41,25.1,25.1,0,0,1-4.51,1.08,39.47,39.47,0,0,0,15.9-8.81l.55,1c-6,1.51-12.1.27-17.94-1.15l2.5-.83a34.33,34.33,0,0,0,15.32-10.45l.73.86c-2.94,1.27-6,1.15-9.06,1.19a81,81,0,0,1-8.94-.73Z"/></g></g></svg>